<svg width="180" height="62" viewBox="0 0 180 62" fill="none" xmlns="http://www.w3.org/2000/svg">
<path d="M114.506 0H101.276V7.08372H114.506V0Z" fill="#E93C2C"/>
<path d="M103.768 7.08167H92.7585V14.1654H103.768V7.08167Z" fill="#0E8961"/>
<path d="M14.6433 13.5289C10.6337 13.5289 9.24733 15.3768 9.24733 17.079C9.24733 18.855 10.3261 20.089 15.3365 22.2511C23.5094 25.5692 26.3622 28.9652 26.3622 34.2914C26.3622 41.6235 20.6566 45.8697 11.8684 45.8697C7.47329 45.8697 3.69551 45.0976 1.46001 43.7856C1.31233 43.7209 1.18839 43.6119 1.10535 43.4736C1.0223 43.3353 0.984268 43.1745 0.996507 43.0136V36.0654C0.996507 35.6814 1.30619 35.5254 1.53795 35.6814C4.77429 37.7655 8.71614 38.6915 12.0222 38.6915C16.0318 38.6915 17.8817 37.1475 17.8817 34.9854C17.8817 33.0553 16.5711 31.6673 11.7146 29.5833C3.92726 26.487 0.996507 23.0991 0.996507 17.619C0.996507 11.6769 5.77719 6.4267 14.7971 6.4267C19.0384 6.4267 22.2768 7.12275 23.9729 7.97074C24.3564 8.20276 24.4343 8.51075 24.4343 8.89676V15.2269C24.4343 15.6889 24.1267 15.9209 23.7411 15.6889C21.4277 14.457 17.9576 13.5289 14.6433 13.5289Z" fill="#0E8961"/>
<path d="M64.1359 36.9154C64.1303 39.4931 64.259 42.0693 64.5215 44.6336C64.5974 45.0196 64.4436 45.1736 63.9821 45.1736H57.3515C56.888 45.1736 56.7362 45.0976 56.5804 44.7116C56.3486 44.0156 56.1948 42.7816 56.1168 42.0095C52.9564 45.0196 49.2565 45.8696 45.7864 45.8696C39.002 45.8696 33.3743 42.3175 33.3743 31.6673V7.74075C33.3743 7.27672 33.5281 7.20074 33.9895 7.20074H41.5451C42.0066 7.20074 42.0845 7.35474 42.0845 7.74075V30.5934C42.0845 35.4576 44.1662 38.3137 48.6474 38.3137C51.5002 38.3137 53.6578 37.3096 55.4318 35.4576V7.74075C55.4318 7.35474 55.6636 7.20074 56.0471 7.20074H63.6027C64.0641 7.20074 64.1421 7.35474 64.1421 7.74075L64.1359 36.9154Z" fill="#0E8961"/>
<path d="M117.716 28.0413C117.87 33.9834 121.262 38.3835 128.971 38.3835C132.21 38.3835 135.141 37.9195 137.995 36.6074C138.225 36.5315 138.379 36.5315 138.379 36.9934V42.9356C138.379 43.4776 138.303 43.6316 137.995 43.7856C135.219 45.1756 131.904 45.8696 127.202 45.8696C113.709 45.8696 108.93 36.2994 108.93 26.5691C108.93 15.7628 115.097 6.42462 126.121 6.42462C137.144 6.42462 141.232 15.3008 141.232 22.401C141.232 24.563 141.078 26.3371 140.846 27.1091C140.846 27.4951 140.614 27.6511 140.231 27.7251C139.228 27.8791 136.221 28.0351 132.366 28.0351L117.716 28.0413ZM128.818 21.7111C131.748 21.7111 132.673 21.6351 132.905 21.5571C132.964 21.33 132.989 21.0955 132.981 20.861C132.981 18.469 131.439 13.4529 125.803 13.4529C120.561 13.4529 118.247 17.621 117.708 21.7111H128.818Z" fill="#0E8961"/>
<path d="M155.49 28.0413C155.644 33.9834 159.036 38.3835 166.745 38.3835C169.984 38.3835 172.914 37.9195 175.769 36.6074C176.001 36.5315 176.155 36.5315 176.155 36.9934V42.9356C176.155 43.4776 176.079 43.6316 175.769 43.7856C172.994 45.1756 169.68 45.8696 164.977 45.8696C151.484 45.8696 146.706 36.2994 146.706 26.5691C146.706 15.7628 152.873 6.42462 163.896 6.42462C174.92 6.42462 179.008 15.3008 179.008 22.401C179.008 24.5631 178.854 26.3371 178.622 27.1091C178.622 27.4951 178.39 27.6511 178.007 27.7251C177.004 27.8791 173.997 28.0351 170.141 28.0351L155.49 28.0413ZM166.591 21.7111C169.522 21.7111 170.447 21.6351 170.679 21.5571C170.738 21.33 170.763 21.0955 170.755 20.861C170.755 18.469 169.212 13.4529 163.576 13.4529C158.334 13.4529 156.021 17.621 155.482 21.7111H166.591Z" fill="#0E8961"/>
<path d="M91.8889 37.2255L84.4892 36.8395C83.9279 36.1221 83.5561 35.2747 83.4084 34.3756C83.3156 33.5642 83.4219 32.7424 83.7181 31.9815C84.7359 32.1388 85.7645 32.2164 86.7944 32.2135C94.5879 32.2135 101.059 28.1994 101.059 19.7872C101.059 16.9311 100.209 15.0791 99.2845 13.7671C99.7747 13.8369 100.279 13.379 100.907 13.4345L96.3168 7.20078H94.7417C94.1693 7.18921 93.6002 7.11135 93.0456 6.96876C90.9334 6.59526 88.7916 6.41452 86.6468 6.42876C77.473 6.42876 71.9991 12.2169 71.9991 19.549C71.9991 24.1812 74.0029 27.4212 77.0875 29.5053C76.1281 31.1563 75.6485 33.0429 75.7029 34.9523C75.7573 36.8616 76.3434 38.7178 77.3951 40.3115C72.3068 44.7116 70.303 47.7997 70.303 50.2677C70.303 55.9039 75.8528 62 87.7358 62C99.2209 62 106.623 55.7479 106.623 48.0379C106.623 41.7858 102.23 37.6957 91.8971 37.2337M86.6468 12.8349C90.8881 12.8349 92.8159 15.7669 92.8159 19.549C92.8159 23.4092 90.5025 25.8012 86.6468 25.8012C82.6393 25.8012 80.4017 23.0991 80.4017 19.395C80.4017 15.3809 82.8628 12.8349 86.6468 12.8349ZM88.1891 55.4378C82.022 55.4378 78.398 52.4278 78.398 49.5717C78.398 48.4137 79.9403 45.8758 82.1758 44.2456L90.039 44.6316C94.8955 44.8636 98.6754 45.8635 98.6754 49.3397C98.6754 52.4196 95.437 55.4378 88.1891 55.4378Z" fill="#0E8961"/>
</svg>
